<svg width="363" height="53" viewBox="0 0 363 53" fill="none" xmlns="http://www.w3.org/2000/svg">
<path d="M39.7344 45.2852C38 47.7695 35.5742 49.6328 32.457 50.875C29.3633 52.0938 25.7539 52.7031 21.6289 52.7031C17.457 52.7031 13.7539 51.7305 10.5195 49.7852C7.28516 47.8164 4.77734 45.0273 2.99609 41.418C1.23828 37.8086 0.335938 33.625 0.289062 28.8672V24.4023C0.289062 16.6914 2.08203 10.7148 5.66797 6.47266C9.27734 2.23047 14.3398 0.109375 20.8555 0.109375C26.1992 0.109375 30.5 1.48047 33.7578 4.22266C37.0156 6.94141 39.0078 10.8086 39.7344 15.8242H32.9844C31.7188 9.05078 27.6875 5.66406 20.8906 5.66406C16.3672 5.66406 12.9336 7.25781 10.5898 10.4453C8.26953 13.6094 7.09766 18.2031 7.07422 24.2266V28.4102C7.07422 34.1523 8.38672 38.7227 11.0117 42.1211C13.6367 45.4961 17.1875 47.1836 21.6641 47.1836C24.1953 47.1836 26.4102 46.9023 28.3086 46.3398C30.207 45.7773 31.7773 44.8281 33.0195 43.4922V31.9961H21.1719V26.5117H39.7344V45.2852ZM73.4844 52C73.1094 51.25 72.8047 49.9141 72.5703 47.9922C69.5469 51.1328 65.9375 52.7031 61.7422 52.7031C57.9922 52.7031 54.9102 51.6484 52.4961 49.5391C50.1055 47.4062 48.9102 44.7109 48.9102 41.4531C48.9102 37.4922 50.4102 34.4219 53.4102 32.2422C56.4336 30.0391 60.6758 28.9375 66.1367 28.9375H72.4648V25.9492C72.4648 23.6758 71.7852 21.8711 70.4258 20.5352C69.0664 19.1758 67.0625 18.4961 64.4141 18.4961C62.0938 18.4961 60.1484 19.082 58.5781 20.2539C57.0078 21.4258 56.2227 22.8438 56.2227 24.5078H49.6836C49.6836 22.6094 50.3516 20.7812 51.6875 19.0234C53.0469 17.2422 54.875 15.8359 57.1719 14.8047C59.4922 13.7734 62.0352 13.2578 64.8008 13.2578C69.1836 13.2578 72.6172 14.3594 75.1016 16.5625C77.5859 18.7422 78.875 21.7539 78.9688 25.5977V43.1055C78.9688 46.5977 79.4141 49.375 80.3047 51.4375V52H73.4844ZM62.6914 47.043C64.7305 47.043 66.6641 46.5156 68.4922 45.4609C70.3203 44.4062 71.6445 43.0352 72.4648 41.3477V33.543H67.3672C59.3984 33.543 55.4141 35.875 55.4141 40.5391C55.4141 42.5781 56.0938 44.1719 57.4531 45.3203C58.8125 46.4688 60.5586 47.043 62.6914 47.043ZM95.2812 13.9609L95.457 18.1797C98.2461 14.8984 102.008 13.2578 106.742 13.2578C112.062 13.2578 115.684 15.2969 117.605 19.375C118.871 17.5469 120.512 16.0703 122.527 14.9453C124.566 13.8203 126.969 13.2578 129.734 13.2578C138.078 13.2578 142.32 17.6758 142.461 26.5117V52H135.957V26.8984C135.957 24.1797 135.336 22.1523 134.094 20.8164C132.852 19.457 130.766 18.7773 127.836 18.7773C125.422 18.7773 123.418 19.5039 121.824 20.957C120.23 22.3867 119.305 24.3203 119.047 26.7578V52H112.508V27.0742C112.508 21.543 109.801 18.7773 104.387 18.7773C100.121 18.7773 97.2031 20.5938 95.6328 24.2266V52H89.1289V13.9609H95.2812ZM168.09 52.7031C162.934 52.7031 158.738 51.0156 155.504 47.6406C152.27 44.2422 150.652 39.707 150.652 34.0352V32.8398C150.652 29.0664 151.367 25.7031 152.797 22.75C154.25 19.7734 156.266 17.4531 158.844 15.7891C161.445 14.1016 164.258 13.2578 167.281 13.2578C172.227 13.2578 176.07 14.8867 178.812 18.1445C181.555 21.4023 182.926 26.0664 182.926 32.1367V34.8438H157.156C157.25 38.5938 158.34 41.6289 160.426 43.9492C162.535 46.2461 165.207 47.3945 168.441 47.3945C170.738 47.3945 172.684 46.9258 174.277 45.9883C175.871 45.0508 177.266 43.8086 178.461 42.2617L182.434 45.3555C179.246 50.2539 174.465 52.7031 168.09 52.7031ZM167.281 18.6016C164.656 18.6016 162.453 19.5625 160.672 21.4844C158.891 23.3828 157.789 26.0547 157.367 29.5H176.422V29.0078C176.234 25.7031 175.344 23.1484 173.75 21.3438C172.156 19.5156 170 18.6016 167.281 18.6016ZM230.844 52H224.059L198.289 12.5547V52H191.504V0.8125H198.289L224.129 40.4336V0.8125H230.844V52ZM257.598 52.7031C252.441 52.7031 248.246 51.0156 245.012 47.6406C241.777 44.2422 240.16 39.707 240.16 34.0352V32.8398C240.16 29.0664 240.875 25.7031 242.305 22.75C243.758 19.7734 245.773 17.4531 248.352 15.7891C250.953 14.1016 253.766 13.2578 256.789 13.2578C261.734 13.2578 265.578 14.8867 268.32 18.1445C271.062 21.4023 272.434 26.0664 272.434 32.1367V34.8438H246.664C246.758 38.5938 247.848 41.6289 249.934 43.9492C252.043 46.2461 254.715 47.3945 257.949 47.3945C260.246 47.3945 262.191 46.9258 263.785 45.9883C265.379 45.0508 266.773 43.8086 267.969 42.2617L271.941 45.3555C268.754 50.2539 263.973 52.7031 257.598 52.7031ZM256.789 18.6016C254.164 18.6016 251.961 19.5625 250.18 21.4844C248.398 23.3828 247.297 26.0547 246.875 29.5H265.93V29.0078C265.742 25.7031 264.852 23.1484 263.258 21.3438C261.664 19.5156 259.508 18.6016 256.789 18.6016ZM313.672 43.0352L320.984 13.9609H327.488L316.414 52H311.141L301.895 23.1719L292.895 52H287.621L276.582 13.9609H283.051L290.539 42.4375L299.398 13.9609H304.637L313.672 43.0352ZM356.281 41.9102C356.281 40.1523 355.613 38.793 354.277 37.832C352.965 36.8477 350.656 36.0039 347.352 35.3008C344.07 34.5977 341.457 33.7539 339.512 32.7695C337.59 31.7852 336.16 30.6133 335.223 29.2539C334.309 27.8945 333.852 26.2773 333.852 24.4023C333.852 21.2852 335.164 18.6484 337.789 16.4922C340.438 14.3359 343.812 13.2578 347.914 13.2578C352.227 13.2578 355.719 14.3711 358.391 16.5977C361.086 18.8242 362.434 21.6719 362.434 25.1406H355.895C355.895 23.3594 355.133 21.8242 353.609 20.5352C352.109 19.2461 350.211 18.6016 347.914 18.6016C345.547 18.6016 343.695 19.1172 342.359 20.1484C341.023 21.1797 340.355 22.5273 340.355 24.1914C340.355 25.7617 340.977 26.9453 342.219 27.7422C343.461 28.5391 345.699 29.3008 348.934 30.0273C352.191 30.7539 354.828 31.6211 356.844 32.6289C358.859 33.6367 360.348 34.8555 361.309 36.2852C362.293 37.6914 362.785 39.4141 362.785 41.4531C362.785 44.8516 361.426 47.582 358.707 49.6445C355.988 51.6836 352.461 52.7031 348.125 52.7031C345.078 52.7031 342.383 52.1641 340.039 51.0859C337.695 50.0078 335.855 48.5078 334.52 46.5859C333.207 44.6406 332.551 42.543 332.551 40.293H339.055C339.172 42.4727 340.039 44.207 341.656 45.4961C343.297 46.7617 345.453 47.3945 348.125 47.3945C350.586 47.3945 352.555 46.9023 354.031 45.918C355.531 44.9102 356.281 43.5742 356.281 41.9102Z" fill="#8e8d8d"/>
</svg>
